<?xml version="1.0" encoding="utf-8"?>
<!-- Generator: Adobe Illustrator 27.5.0, SVG Export Plug-In . SVG Version: 6.00 Build 0)  -->
<svg version="1.1" id="레이어_1" xmlns="http://www.w3.org/2000/svg" xmlns:xlink="http://www.w3.org/1999/xlink" x="0px"
	 y="0px" viewBox="0 0 252.4 128.6" style="enable-background:new 0 0 252.4 128.6;" xml:space="preserve">
<style type="text/css">
	.st0{fill-rule:evenodd;clip-rule:evenodd;fill:#003984;}
</style>
<path id="path830" class="st0" d="M152.6,79.2c1.9,9.9-3.3,18.2-7.6,26.2c-4.8,7.4-12.7,13.9-22.3,12.9c-21.4-0.3-42.3-3.6-61.7-9.5
	c-0.9-0.2-1.8-0.8-2.2-1.6c-0.4-1.1,0.2-2.2,1-2.9c17.7-14.3,38.8-21,59.6-28c7.8-2.2,16-4.6,24.7-3.5
	C147.7,73.3,151.3,75.8,152.6,79.2z M225.6,36.7c9.9,8.2,18.9,19.3,15.9,32.8c-5,19.9-26.6,30.4-43.8,37.2
	c-9.4,3.1-18.8,6.3-29.1,7.3c-0.6-0.1-1.7,0.1-1.8-0.9l0.2-1.1c14.6-16.4,25.6-34.8,35.3-53.5c4.5-8.4,8.7-17.1,12.5-25.5
	c0.6-0.6,1.1-1,1.8-1.2C220.1,32,222.7,34.8,225.6,36.7L225.6,36.7z M85.8,15.6l-0.3,1.2C64.4,40.7,50.6,68.5,37.5,96.2
	c-2.6,2.4-5-0.8-7.4-1.8C18.4,86.6,7.8,74.2,10.9,59.5C15.7,40.2,35.5,30,52,23c9.8-3.7,19.9-6.6,30.7-8.3
	C83.8,14.7,85.3,14.5,85.8,15.6z M190.3,19.4c1.2,0.6,2.6,0.9,3.4,2.1c0.6,1.4-0.6,2.2-1.4,3.1c-16.6,13-35.6,20.2-54.9,26.5
	c-9.9,2.4-19.8,6.7-30.8,4.3c-2.6-0.6-4.9-2.3-6.3-4.8c-2.7-7.5,1-15.4,4.2-21.9c4.2-8.2,11.8-17.9,22.2-18.1
	C149.1,10.5,170.2,13.8,190.3,19.4z M218.1,20.1c17,9.3,36.2,25.6,34.2,47.4c-2.3,20.2-21.1,34.3-38,42.8
	c-49.1,23.5-118.1,24.2-168.8,3.7C28.4,106.8,9.2,94.6,2,76.1C-3.6,61,3.2,45.2,14.5,34.7C38.1,13.3,68.2,5.9,99.2,1.6
	c33.6-4.1,69-0.5,99.2,9.9C205.1,14,211.7,16.7,218.1,20.1z"/>
</svg>
